<?xml version="1.0" encoding="UTF-8" standalone="no"?>
<svg
   viewBox="0 0 1024 1024"
   width="1024"
   height="1024"
   version="1.1"
   id="svg18"
   xmlns="http://www.w3.org/2000/svg"
   xmlns:svg="http://www.w3.org/2000/svg">
  <defs
     id="defs18" />
  <g
     fill="None"
     fill-opacity="0"
     stroke="#000000"
     stroke-opacity="0"
     stroke-width="0.3"
     id="g1">
    <path
       d="M 0,1024 H 1024 V 0 H 0 V 1024 M 388,627 c -0.49,0.06 -1,0 -1,0 -4.05,2.99 -13.79,0.57 -18,0 -1.33,0 -2.67,0 -4,0 -14.46,0 -23.21,-3.5 -37.22,-6.78 -14.02,-3.27 -5.14,-18.75 -1,-28.44 4.13,-9.7 8.98,-20.05 15.52,-28.48 6.55,-8.43 12.61,-16.81 20.95,-24.05 8.33,-7.24 15.95,-13.88 26,-19 10.04,-5.13 21.32,-9 32.97,-11.03 11.65,-2.03 28.72,-0.18 39.85,2.71 11.14,2.89 21.38,7.39 31.01,12.99 9.63,5.6 17.82,11.72 26.17,18.83 8.34,7.12 16.07,14.31 21.75,23.25 -0.09,-11.32 -3.7,-24.31 -6.98,-36.02 -3.27,-11.72 -6.88,-22.81 -10.34,-34.66 -3.47,-11.84 -7.23,-23.71 -10.01,-35.99 -2.78,-12.28 -6.24,-24.44 -7.66,-37.34 -1.43,-12.9 -1.94,-27.45 -1.01,-39.99 0.93,-12.54 3.86,-26.77 7.93,-38.07 4.06,-11.31 8.72,-20.21 15.32,-29.68 6.6,-9.47 12.15,-16.4 21.5,-23.5 9.35,-7.1 19.57,-12.22 31.27,-14.73 11.71,-2.5 27.56,-1.64 38.66,2.3 11.1,3.94 21.21,8.26 31.02,13.99 9.8,5.72 19.09,11.23 27.55,18.44 8.46,7.22 18.76,13.36 19.74,25.26 0.99,11.89 -9.47,20.79 -20.07,24.91 -10.59,4.13 -28.66,6.46 -40.59,5.41 -11.93,-1.05 -27.66,-5.19 -40.33,-3.33 -12.67,1.86 -19.9,10.14 -23.33,21.67 -3.43,11.53 0.78,27.19 4.26,38.4 3.47,11.21 8.17,21.57 12.84,32.16 4.68,10.59 9.21,20.43 14.15,30.85 4.95,10.41 9.83,21.05 14.39,31.61 4.55,10.56 9.07,21.51 12.62,32.38 3.54,10.88 8.4,23.55 10.4,34.6 1.99,11.06 11.01,28.54 -1.4,33.26 -12.42,4.71 -22.85,7.39 -35.93,9.07 -13.08,1.68 -22.33,4.92 -36.22,4.78 -13.89,-0.14 -30.06,2.53 -42.85,1.15 -12.8,-1.38 -28.61,0.19 -38.96,-3.9 -10.36,-4.09 -10.33,-17.88 -18.23,-24.78 -7.91,-6.91 -16.25,-17 -28.74,-17.25 -12.49,-0.24 -24.32,3.01 -33.23,11.77 -8.91,8.76 -11.78,18.98 -18.77,27.23 m -97,-16 c -11.57,7.75 -7.71,21.24 5.08,26.92 12.78,5.68 23.67,9.56 37.59,12.41 13.92,2.85 27.72,5.87 42.34,7.66 14.61,1.8 30.56,3.15 45.66,4.34 15.1,1.19 30.44,2 45.41,2.6 14.97,0.61 29.6,-0.39 43.92,0.07 14.32,0.46 30.9,-1.36 46,-2 15.1,-0.64 30.81,-4.16 46,-5 -4.73,-2.36 7.77,-1.44 13.22,-2.78 5.45,-1.34 14.26,-2.25 20,-4 5.74,-1.75 13.26,-2.96 18.85,-5.15 5.6,-2.18 11.89,-4.1 17.01,-6.99 5.11,-2.9 10.01,-5.58 12.69,-11.31 2.68,-5.73 -2.92,-13.75 -7.77,-15.77 15.95,-3.37 42,18.71 26.25,33.25 -15.75,14.54 -30.19,17.68 -50.27,23.73 -20.09,6.04 -39.32,8.26 -60.98,11.02 -21.66,2.76 -45.23,5.21 -68.02,5.98 -22.8,0.76 -50.35,-0.01 -72.98,-0.98 -22.63,-0.97 -46.45,-3.1 -68.22,-5.78 -21.77,-2.68 -43.01,-4.87 -63.46,-10.54 C 298.88,663 284.6,660.64 267.25,646.75 249.9,632.87 273.44,610.18 291,611 m 226,117 c -2,0 -4,0 -6,0 -13.78,1.34 -30.29,1.46 -44,0 -1.67,0 -3.33,0 -5,0 -45.84,0 -92.99,-8.24 -131,-33 82.03,17.98 169.98,23.72 255,11 -1.93,-2.18 7.86,-1.74 13.22,-2.78 5.36,-1.04 13.51,-2.47 19,-4 5.5,-1.53 12.83,-4.41 17.78,-3.22 -34.5,24.39 -77.1,29.9 -119,32 z"
       id="path1" />
  </g>
  <g
     fill="None"
     fill-opacity="0"
     stroke="#c3c3c3"
     stroke-opacity="0.98"
     stroke-width="0.3"
     id="g2"
     style="fill:#ffffff">
    <path
       d="m 365,627 c 4.41,-0.43 19.36,-3.79 23,0 6.99,-8.25 9.86,-18.47 18.77,-27.23 8.91,-8.76 20.74,-12.01 33.23,-11.77 12.49,0.25 20.83,10.34 28.74,17.25 7.9,6.9 7.87,20.69 18.23,24.78 10.35,4.09 26.16,2.52 38.96,3.9 12.79,1.38 28.96,-1.29 42.85,-1.15 13.89,0.14 23.14,-3.1 36.22,-4.78 13.08,-1.68 23.51,-4.36 35.93,-9.07 12.41,-4.72 3.39,-22.2 1.4,-33.26 -2,-11.05 -6.86,-23.72 -10.4,-34.6 -3.55,-10.87 -8.07,-21.82 -12.62,-32.38 -4.56,-10.56 -9.44,-21.2 -14.39,-31.61 -4.94,-10.42 -9.47,-20.26 -14.15,-30.85 -4.67,-10.59 -9.37,-20.95 -12.84,-32.16 -3.48,-11.21 -7.69,-26.87 -4.26,-38.4 3.43,-11.53 10.66,-19.81 23.33,-21.67 12.67,-1.86 28.4,2.28 40.33,3.33 11.93,1.05 30,-1.28 40.59,-5.41 10.6,-4.12 21.06,-13.02 20.07,-24.91 -0.98,-11.9 -11.28,-18.04 -19.74,-25.26 -8.46,-7.21 -17.75,-12.72 -27.55,-18.44 -9.81,-5.73 -19.92,-10.05 -31.02,-13.99 -11.1,-3.94 -26.95,-4.8 -38.66,-2.3 -11.7,2.51 -21.92,7.63 -31.27,14.73 -9.35,7.1 -14.9,14.03 -21.5,23.5 -6.6,9.47 -11.26,18.37 -15.32,29.68 -4.07,11.3 -7,25.53 -7.93,38.07 -0.93,12.54 -0.42,27.09 1.01,39.99 1.42,12.9 4.88,25.06 7.66,37.34 2.78,12.28 6.54,24.15 10.01,35.99 3.46,11.85 7.07,22.94 10.34,34.66 3.28,11.71 6.89,24.7 6.98,36.02 -5.68,-8.94 -13.41,-16.13 -21.75,-23.25 -8.35,-7.11 -16.54,-13.23 -26.17,-18.83 -9.63,-5.6 -19.87,-10.1 -31.01,-12.99 -11.13,-2.89 -28.2,-4.74 -39.85,-2.71 -11.65,2.03 -22.93,5.9 -32.97,11.03 -10.05,5.12 -17.67,11.76 -26,19 -8.34,7.24 -14.4,15.62 -20.95,24.05 -6.54,8.43 -11.39,18.78 -15.52,28.48 -4.14,9.69 -13.02,25.17 1,28.44 14.01,3.28 22.76,6.78 37.22,6.78 M 618,305 c 12.69,0.65 12.38,20.69 -1,20 -13.39,-0.7 -11.8,-20.66 1,-20 z"
       id="path2"
       style="fill:#ffffff" />
  </g>
  <g
     fill="None"
     fill-opacity="0"
     stroke="#000000"
     stroke-opacity="0"
     stroke-width="0.3"
     id="g3"
     style="fill:#ffffff">
    <path
       d="m 618,305 c -12.8,-0.66 -14.39,19.3 -1,20 13.38,0.69 13.69,-19.35 1,-20 z"
       id="path3"
       style="fill:#ffffff" />
  </g>
  <g
     fill="None"
     fill-opacity="0"
     stroke="#c0c0c1"
     stroke-opacity="0.94"
     stroke-width="0.3"
     id="g4"
     style="fill:#ffffff">
    <path
       d="m 291,611 c -17.56,-0.82 -41.1,21.87 -23.75,35.75 17.35,13.89 31.63,16.25 52.07,21.93 20.45,5.67 41.69,7.86 63.46,10.54 21.77,2.68 45.59,4.81 68.22,5.78 22.63,0.97 50.18,1.74 72.98,0.98 22.79,-0.77 46.36,-3.22 68.02,-5.98 21.66,-2.76 40.89,-4.98 60.98,-11.02 20.08,-6.05 34.52,-9.19 50.27,-23.73 C 719,630.71 692.95,608.63 677,612 c 4.85,2.02 10.45,10.04 7.77,15.77 -2.68,5.73 -7.58,8.41 -12.69,11.31 -5.12,2.89 -11.41,4.81 -17.01,6.99 -5.59,2.19 -13.11,3.4 -18.85,5.15 -5.74,1.75 -14.55,2.66 -20,4 -5.45,1.34 -17.95,0.42 -13.22,2.78 -15.19,0.84 -30.9,4.36 -46,5 -15.1,0.64 -31.68,2.46 -46,2 -14.32,-0.46 -28.95,0.54 -43.92,-0.07 -14.97,-0.6 -30.31,-1.41 -45.41,-2.6 -15.1,-1.19 -31.05,-2.54 -45.66,-4.34 -14.62,-1.79 -28.42,-4.81 -42.34,-7.66 -13.92,-2.85 -24.81,-6.73 -37.59,-12.41 C 283.29,632.24 279.43,618.75 291,611 Z"
       id="path4"
       style="fill:#ffffff" />
  </g>
  <g
     fill="None"
     fill-opacity="0"
     stroke="#9f9d9d"
     stroke-opacity="0.96"
     stroke-width="0.3"
     id="g5"
     style="fill:#ffffff">
    <path
       d="m 365,627 c 1.33,0 2.67,0 4,0 6,0 12,0 18,0 0,0 0.51,0.06 1,0 -3.64,-3.79 -18.59,-0.43 -23,0 z"
       id="path5"
       style="fill:#ffffff" />
  </g>
  <g
     fill="None"
     fill-opacity="0"
     stroke="#c9c9c9"
     stroke-opacity="0.08"
     stroke-width="0.3"
     id="g6"
     style="fill:#ffffff">
    <path
       d="m 387,627 c -6,0 -12,0 -18,0 4.21,0.57 13.95,2.99 18,0 z"
       id="path6"
       style="fill:#ffffff" />
  </g>
  <g
     fill="None"
     fill-opacity="0"
     stroke="#bfbfc0"
     stroke-opacity="0.91"
     stroke-width="0.3"
     id="g7"
     style="fill:#ffffff">
    <path
       d="m 462,728 c 17.26,-1.67 37.81,-1.66 55,0 41.9,-2.1 84.5,-7.61 119,-32 -4.95,-1.19 -12.28,1.69 -17.78,3.22 -5.49,1.53 -13.64,2.96 -19,4 -5.36,1.04 -15.15,0.6 -13.22,2.78 -85.02,12.72 -172.97,6.98 -255,-11 38.01,24.76 85.16,33 131,33 z"
       id="path7"
       style="fill:#ffffff" />
  </g>
  <g
     fill="None"
     fill-opacity="0"
     stroke="#a1a0a1"
     stroke-opacity="0.97"
     stroke-width="0.3"
     id="g8"
     style="fill:#ffffff">
    <path
       d="m 462,728 c 1.67,0 3.33,0 5,0 14.67,0 29.33,0 44,0 2,0 4,0 6,0 -17.19,-1.66 -37.74,-1.67 -55,0 z"
       id="path8"
       style="fill:#ffffff" />
  </g>
  <g
     fill="None"
     fill-opacity="0"
     stroke="#c3c2c3"
     stroke-opacity="0.14"
     stroke-width="0.3"
     id="g9"
     style="fill:#ffffff">
    <path
       d="m 511,728 c -14.67,0 -29.33,0 -44,0 13.71,1.46 30.22,1.34 44,0 z"
       id="path9"
       style="fill:#ffffff" />
  </g>
  <g
     fill="#000000"
     fill-opacity="0"
     stroke="None"
     id="g10">
    <path
       d="M 0,1024 H 1024 V 0 H 0 V 1024 M 388,627 c -0.49,0.06 -1,0 -1,0 -4.05,2.99 -13.79,0.57 -18,0 -1.33,0 -2.67,0 -4,0 -14.46,0 -23.21,-3.5 -37.22,-6.78 -14.02,-3.27 -5.14,-18.75 -1,-28.44 4.13,-9.7 8.98,-20.05 15.52,-28.48 6.55,-8.43 12.61,-16.81 20.95,-24.05 8.33,-7.24 15.95,-13.88 26,-19 10.04,-5.13 21.32,-9 32.97,-11.03 11.65,-2.03 28.72,-0.18 39.85,2.71 11.14,2.89 21.38,7.39 31.01,12.99 9.63,5.6 17.82,11.72 26.17,18.83 8.34,7.12 16.07,14.31 21.75,23.25 -0.09,-11.32 -3.7,-24.31 -6.98,-36.02 -3.27,-11.72 -6.88,-22.81 -10.34,-34.66 -3.47,-11.84 -7.23,-23.71 -10.01,-35.99 -2.78,-12.28 -6.24,-24.44 -7.66,-37.34 -1.43,-12.9 -1.94,-27.45 -1.01,-39.99 0.93,-12.54 3.86,-26.77 7.93,-38.07 4.06,-11.31 8.72,-20.21 15.32,-29.68 6.6,-9.47 12.15,-16.4 21.5,-23.5 9.35,-7.1 19.57,-12.22 31.27,-14.73 11.71,-2.5 27.56,-1.64 38.66,2.3 11.1,3.94 21.21,8.26 31.02,13.99 9.8,5.72 19.09,11.23 27.55,18.44 8.46,7.22 18.76,13.36 19.74,25.26 0.99,11.89 -9.47,20.79 -20.07,24.91 -10.59,4.13 -28.66,6.46 -40.59,5.41 -11.93,-1.05 -27.66,-5.19 -40.33,-3.33 -12.67,1.86 -19.9,10.14 -23.33,21.67 -3.43,11.53 0.78,27.19 4.26,38.4 3.47,11.21 8.17,21.57 12.84,32.16 4.68,10.59 9.21,20.43 14.15,30.85 4.95,10.41 9.83,21.05 14.39,31.61 4.55,10.56 9.07,21.51 12.62,32.38 3.54,10.88 8.4,23.55 10.4,34.6 1.99,11.06 11.01,28.54 -1.4,33.26 -12.42,4.71 -22.85,7.39 -35.93,9.07 -13.08,1.68 -22.33,4.92 -36.22,4.78 -13.89,-0.14 -30.06,2.53 -42.85,1.15 -12.8,-1.38 -28.61,0.19 -38.96,-3.9 -10.36,-4.09 -10.33,-17.88 -18.23,-24.78 -7.91,-6.91 -16.25,-17 -28.74,-17.25 -12.49,-0.24 -24.32,3.01 -33.23,11.77 -8.91,8.76 -11.78,18.98 -18.77,27.23 m -97,-16 c -11.57,7.75 -7.71,21.24 5.08,26.92 12.78,5.68 23.67,9.56 37.59,12.41 13.92,2.85 27.72,5.87 42.34,7.66 14.61,1.8 30.56,3.15 45.66,4.34 15.1,1.19 30.44,2 45.41,2.6 14.97,0.61 29.6,-0.39 43.92,0.07 14.32,0.46 30.9,-1.36 46,-2 15.1,-0.64 30.81,-4.16 46,-5 -4.73,-2.36 7.77,-1.44 13.22,-2.78 5.45,-1.34 14.26,-2.25 20,-4 5.74,-1.75 13.26,-2.96 18.85,-5.15 5.6,-2.18 11.89,-4.1 17.01,-6.99 5.11,-2.9 10.01,-5.58 12.69,-11.31 2.68,-5.73 -2.92,-13.75 -7.77,-15.77 15.95,-3.37 42,18.71 26.25,33.25 -15.75,14.54 -30.19,17.68 -50.27,23.73 -20.09,6.04 -39.32,8.26 -60.98,11.02 -21.66,2.76 -45.23,5.21 -68.02,5.98 -22.8,0.76 -50.35,-0.01 -72.98,-0.98 -22.63,-0.97 -46.45,-3.1 -68.22,-5.78 -21.77,-2.68 -43.01,-4.87 -63.46,-10.54 C 298.88,663 284.6,660.64 267.25,646.75 249.9,632.87 273.44,610.18 291,611 m 226,117 c -2,0 -4,0 -6,0 -13.78,1.34 -30.29,1.46 -44,0 -1.67,0 -3.33,0 -5,0 -45.84,0 -92.99,-8.24 -131,-33 82.03,17.98 169.98,23.72 255,11 -1.93,-2.18 7.86,-1.74 13.22,-2.78 5.36,-1.04 13.51,-2.47 19,-4 5.5,-1.53 12.83,-4.41 17.78,-3.22 -34.5,24.39 -77.1,29.9 -119,32 z"
       id="path10" />
  </g>
  <g
     fill="#C3C3C3"
     fill-opacity="0.98"
     stroke="None"
     id="g11"
     style="fill:#ffffff">
    <path
       d="m 365,627 c 4.41,-0.43 19.36,-3.79 23,0 6.99,-8.25 9.86,-18.47 18.77,-27.23 8.91,-8.76 20.74,-12.01 33.23,-11.77 12.49,0.25 20.83,10.34 28.74,17.25 7.9,6.9 7.87,20.69 18.23,24.78 10.35,4.09 26.16,2.52 38.96,3.9 12.79,1.38 28.96,-1.29 42.85,-1.15 13.89,0.14 23.14,-3.1 36.22,-4.78 13.08,-1.68 23.51,-4.36 35.93,-9.07 12.41,-4.72 3.39,-22.2 1.4,-33.26 -2,-11.05 -6.86,-23.72 -10.4,-34.6 -3.55,-10.87 -8.07,-21.82 -12.62,-32.38 -4.56,-10.56 -9.44,-21.2 -14.39,-31.61 -4.94,-10.42 -9.47,-20.26 -14.15,-30.85 -4.67,-10.59 -9.37,-20.95 -12.84,-32.16 -3.48,-11.21 -7.69,-26.87 -4.26,-38.4 3.43,-11.53 10.66,-19.81 23.33,-21.67 12.67,-1.86 28.4,2.28 40.33,3.33 11.93,1.05 30,-1.28 40.59,-5.41 10.6,-4.12 21.06,-13.02 20.07,-24.91 -0.98,-11.9 -11.28,-18.04 -19.74,-25.26 -8.46,-7.21 -17.75,-12.72 -27.55,-18.44 -9.81,-5.73 -19.92,-10.05 -31.02,-13.99 -11.1,-3.94 -26.95,-4.8 -38.66,-2.3 -11.7,2.51 -21.92,7.63 -31.27,14.73 -9.35,7.1 -14.9,14.03 -21.5,23.5 -6.6,9.47 -11.26,18.37 -15.32,29.68 -4.07,11.3 -7,25.53 -7.93,38.07 -0.93,12.54 -0.42,27.09 1.01,39.99 1.42,12.9 4.88,25.06 7.66,37.34 2.78,12.28 6.54,24.15 10.01,35.99 3.46,11.85 7.07,22.94 10.34,34.66 3.28,11.71 6.89,24.7 6.98,36.02 -5.68,-8.94 -13.41,-16.13 -21.75,-23.25 -8.35,-7.11 -16.54,-13.23 -26.17,-18.83 -9.63,-5.6 -19.87,-10.1 -31.01,-12.99 -11.13,-2.89 -28.2,-4.74 -39.85,-2.71 -11.65,2.03 -22.93,5.9 -32.97,11.03 -10.05,5.12 -17.67,11.76 -26,19 -8.34,7.24 -14.4,15.62 -20.95,24.05 -6.54,8.43 -11.39,18.78 -15.52,28.48 -4.14,9.69 -13.02,25.17 1,28.44 14.01,3.28 22.76,6.78 37.22,6.78 M 618,305 c 12.69,0.65 12.38,20.69 -1,20 -13.39,-0.7 -11.8,-20.66 1,-20 z"
       id="path11"
       style="fill:#ffffff" />
  </g>
  <g
     fill="#000000"
     fill-opacity="0"
     stroke="None"
     id="g12"
     style="fill:#ffffff">
    <path
       d="m 618,305 c -12.8,-0.66 -14.39,19.3 -1,20 13.38,0.69 13.69,-19.35 1,-20 z"
       id="path12"
       style="fill:#ffffff" />
  </g>
  <g
     fill="#C0C0C1"
     fill-opacity="0.94"
     stroke="None"
     id="g13"
     style="fill:#ffffff">
    <path
       d="m 291,611 c -17.56,-0.82 -41.1,21.87 -23.75,35.75 17.35,13.89 31.63,16.25 52.07,21.93 20.45,5.67 41.69,7.86 63.46,10.54 21.77,2.68 45.59,4.81 68.22,5.78 22.63,0.97 50.18,1.74 72.98,0.98 22.79,-0.77 46.36,-3.22 68.02,-5.98 21.66,-2.76 40.89,-4.98 60.98,-11.02 20.08,-6.05 34.52,-9.19 50.27,-23.73 C 719,630.71 692.95,608.63 677,612 c 4.85,2.02 10.45,10.04 7.77,15.77 -2.68,5.73 -7.58,8.41 -12.69,11.31 -5.12,2.89 -11.41,4.81 -17.01,6.99 -5.59,2.19 -13.11,3.4 -18.85,5.15 -5.74,1.75 -14.55,2.66 -20,4 -5.45,1.34 -17.95,0.42 -13.22,2.78 -15.19,0.84 -30.9,4.36 -46,5 -15.1,0.64 -31.68,2.46 -46,2 -14.32,-0.46 -28.95,0.54 -43.92,-0.07 -14.97,-0.6 -30.31,-1.41 -45.41,-2.6 -15.1,-1.19 -31.05,-2.54 -45.66,-4.34 -14.62,-1.79 -28.42,-4.81 -42.34,-7.66 -13.92,-2.85 -24.81,-6.73 -37.59,-12.41 C 283.29,632.24 279.43,618.75 291,611 Z"
       id="path13"
       style="fill:#ffffff" />
  </g>
  <g
     fill="#9F9D9D"
     fill-opacity="0.96"
     stroke="None"
     id="g14"
     style="fill:#ffffff">
    <path
       d="m 365,627 c 1.33,0 2.67,0 4,0 6,0 12,0 18,0 0,0 0.51,0.06 1,0 -3.64,-3.79 -18.59,-0.43 -23,0 z"
       id="path14"
       style="fill:#ffffff" />
  </g>
  <g
     fill="#C9C9C9"
     fill-opacity="0.08"
     stroke="None"
     id="g15"
     style="fill:#ffffff">
    <path
       d="m 387,627 c -6,0 -12,0 -18,0 4.21,0.57 13.95,2.99 18,0 z"
       id="path15"
       style="fill:#ffffff" />
  </g>
  <g
     fill="#BFBFC0"
     fill-opacity="0.91"
     stroke="None"
     id="g16"
     style="fill:#ffffff">
    <path
       d="m 462,728 c 17.26,-1.67 37.81,-1.66 55,0 41.9,-2.1 84.5,-7.61 119,-32 -4.95,-1.19 -12.28,1.69 -17.78,3.22 -5.49,1.53 -13.64,2.96 -19,4 -5.36,1.04 -15.15,0.6 -13.22,2.78 -85.02,12.72 -172.97,6.98 -255,-11 38.01,24.76 85.16,33 131,33 z"
       id="path16"
       style="fill:#ffffff" />
  </g>
  <g
     fill="#A1A0A1"
     fill-opacity="0.97"
     stroke="None"
     id="g17"
     style="fill:#ffffff">
    <path
       d="m 462,728 c 1.67,0 3.33,0 5,0 14.67,0 29.33,0 44,0 2,0 4,0 6,0 -17.19,-1.66 -37.74,-1.67 -55,0 z"
       id="path17"
       style="fill:#ffffff" />
  </g>
  <g
     fill="#C3C2C3"
     fill-opacity="0.14"
     stroke="None"
     id="g18"
     style="fill:#ffffff">
    <path
       d="m 511,728 c -14.67,0 -29.33,0 -44,0 13.71,1.46 30.22,1.34 44,0 z"
       id="path18"
       style="fill:#ffffff" />
  </g>
</svg>
